<svg width="35" height="35" viewBox="0 0 35 35" fill="none" xmlns="http://www.w3.org/2000/svg">
    <path d="M16.0816 0.811438C8.78912 1.49819 2.81499 6.79677 1.26305 13.9546C0.690117 16.6011 0.801367 19.6329 1.56899 22.2459C1.74699 22.86 2.16418 23.9767 2.20868 23.9767C2.23093 23.9767 3.46581 23.2732 4.95099 22.4078C6.79774 21.3358 7.65437 20.8109 7.65437 20.7439C7.65437 20.6937 7.60431 20.4927 7.54312 20.2973C7.35399 19.6943 7.20381 18.7339 7.17043 17.8909C6.97574 12.9831 10.2521 8.58902 15.0136 7.37185C16.076 7.09827 16.6545 7.03685 17.9339 7.07594C19.5859 7.12619 20.7986 7.42769 22.2393 8.14794C24.0137 9.04127 25.5044 10.4315 26.5446 12.1735C26.8784 12.7319 27.3846 13.8429 27.4124 14.083C27.4291 14.1835 26.4723 14.753 20.5316 18.1979C16.7379 20.3978 13.6007 22.2179 13.5617 22.2403C13.3837 22.3408 14.7744 23.1783 15.5642 23.4519C16.8047 23.8706 18.4345 23.865 19.6304 23.4351C20.2312 23.2229 20.3814 23.1392 24.442 20.783C26.5113 19.5826 29.5094 17.8462 31.1003 16.9249C32.6912 16.0037 34.0206 15.2332 34.054 15.2053C34.1931 15.0936 33.7258 13.0334 33.2697 11.7771C32.9526 10.8949 32.2629 9.4656 31.7901 8.70627C31.1003 7.59519 30.3661 6.67952 29.3815 5.68569C28.1188 4.41827 27.0508 3.60311 25.5768 2.78794C23.6132 1.70477 21.2881 1.00686 18.9741 0.805855C18.2009 0.744438 16.8047 0.744438 16.0816 0.811438Z" fill="#25A4B2"/>
    <path d="M16.3653 11.336C15.1248 11.5816 13.9789 12.2126 13.0945 13.1338C11.8485 14.4347 11.2644 15.9757 11.3368 17.7903C11.3534 18.1923 11.3924 18.5385 11.4258 18.572C11.4591 18.6055 13.1946 17.6284 16.5321 15.6966C19.3078 14.0886 21.5884 12.7486 21.5996 12.7206C21.6218 12.6481 20.8709 12.1288 20.3925 11.8887C19.8641 11.6207 19.3301 11.4365 18.7627 11.3304C18.212 11.2243 16.8993 11.2299 16.3653 11.336Z" fill="#25A4B2"/>
    <path d="M28.4859 23.262C25.4265 25.0375 22.6342 26.6343 22.2837 26.8186C20.7596 27.6003 19.3189 27.9408 17.55 27.9408C16.5432 27.9408 15.8424 27.8515 14.9746 27.6282C13.189 27.1592 11.676 26.2993 10.3021 24.9761C10.0129 24.7025 9.76254 24.4792 9.73473 24.4792C9.64573 24.4848 4.35023 27.5779 4.33354 27.6393C4.30573 27.7287 5.12898 28.689 5.83542 29.3981C11.409 34.9703 20.17 35.8468 26.7615 31.4863C28.4414 30.3808 30.0323 28.8398 31.1837 27.215C32.3407 25.5735 33.2363 23.6584 33.7202 21.7713C33.9038 21.0454 34.0985 20.0683 34.0651 20.046C34.054 20.0404 31.5453 21.4865 28.4859 23.262Z" fill="#25A4B2"/>
</svg>
